0
SECTION
2
TABLES
0
TABLE
2
LAYER
0
LAYER
2
GRID
62
5
0
LAYER
2
MESH
62
8
0
LAYER
2
SCAN
62
3
0
ENDTAB
0
ENDSEC
0
SECTION
2
ENTITIES
0
LINE
8
GRID
10
-1000
20
0
30
0
11
1000
21
0
31
0
0
LWPOLYLINE
8
GRID
70
1
10
-400
20
-200
10
400
20
-200
10
400
20
200
10
-400
20
200
0
CIRCLE
8
GRID
10
0
20
0
30
0
40
160
0
ARC
8
GRID
10
0
20
0
30
0
40
260
50
15
51
145
0
POINT
8
SCAN
10
-120
20
360
30
15
0
POINT
8
SCAN
10
180
20
320
30
25
0
3DFACE
8
MESH
10
-180
20
-120
30
80
11
180
21
-120
31
80
12
180
22
120
32
180
13
-180
23
120
33
180
0
ENDSEC
0
EOF
