0
SECTION
2
TABLES
0
TABLE
2
LAYER
0
LAYER
2
KEEP_LINE
62
3
0
LAYER
2
BAD_3DFACE
62
1
0
LAYER
2
BAD_SOLID
62
2
0
LAYER
2
BAD_TRACE
62
4
0
LAYER
2
BAD_SOLID_EXTRUSION
62
2
0
LAYER
2
BAD_TRACE_EXTRUSION
62
4
0
ENDTAB
0
ENDSEC
0
SECTION
2
ENTITIES
0
LINE
8
KEEP_LINE
10
0
20
0
30
0
11
100
21
0
31
0
0
3DFACE
8
BAD_3DFACE
10
0
30
0
11
100
21
0
31
0
12
0
22
100
32
0
13
100
23
100
33
0
0
SOLID
8
BAD_SOLID
10
0
20
0
30
0
11
not-a-number
21
0
31
0
12
100
22
100
32
0
13
0
23
100
33
0
0
TRACE
8
BAD_TRACE
10
0
20
0
30
0
11
100
21
0
31
0
12
100
22
100
32
0
13
0
33
0
0
SOLID
8
BAD_SOLID_EXTRUSION
10
0
20
0
30
0
11
100
21
0
31
0
12
100
22
100
32
0
13
0
23
100
33
0
210
bad
220
0
230
1
0
TRACE
8
BAD_TRACE_EXTRUSION
10
0
20
0
30
0
11
100
21
0
31
0
12
100
22
100
32
0
13
0
23
100
33
0
210
0
220
0
230
0
0
ENDSEC
0
EOF
