ISO-10303-21;
HEADER;
FILE_DESCRIPTION(('BoberCAD polygonal STEP reference fixture'), '2;1');
FILE_NAME('sample_reference_geometry_polygonal.step', '2026-06-22T00:00:00', ('BoberCAD'), ('BoberCAD'), 'BoberCAD', 'BoberCAD', '');
FILE_SCHEMA(('AP242_MANAGED_MODEL_BASED_3D_ENGINEERING_MIM_LF'));
ENDSEC;
DATA;
#10 = CARTESIAN_POINT_LIST_3D('', (
  (0.0, 0.0, 0.0),
  (300.0, 0.0, 0.0),
  (300.0, 180.0, 0.0),
  (0.0, 180.0, 0.0),
  (0.0, 0.0, 140.0),
  (300.0, 0.0, 140.0),
  (300.0, 180.0, 140.0),
  (0.0, 180.0, 140.0)
));
#20 = INDEXED_POLYGONAL_FACE((1, 2, 3, 4));
#21 = INDEXED_POLYGONAL_FACE((5, 8, 7, 6));
#22 = INDEXED_POLYGONAL_FACE((1, 5, 6, 2));
#23 = INDEXED_POLYGONAL_FACE((2, 6, 7, 3));
#24 = INDEXED_POLYGONAL_FACE((3, 7, 8, 4));
#25 = INDEXED_POLYGONAL_FACE((4, 8, 5, 1));
#40 = POLYGONAL_FACE_SET('', #10, .T., (#20, #21, #22, #23, #24, #25));
ENDSEC;
END-ISO-10303-21;
