0
SECTION
2
TABLES
0
TABLE
2
LAYER
0
LAYER
2
KEEP_LINE
62
3
0
LAYER
2
BAD_POINT_MISSING_X
62
1
0
LAYER
2
BAD_POINT_MISSING_Y
62
2
0
LAYER
2
BAD_POINT_INVALID_X
62
4
0
LAYER
2
BAD_POINT_INVALID_Z
62
5
0
ENDTAB
0
ENDSEC
0
SECTION
2
ENTITIES
0
LINE
8
KEEP_LINE
10
0
20
0
30
0
11
100
21
0
31
0
0
POINT
8
BAD_POINT_MISSING_X
20
10
30
0
0
POINT
8
BAD_POINT_MISSING_Y
10
20
30
0
0
POINT
8
BAD_POINT_INVALID_X
10
not-a-number
20
30
30
0
0
POINT
8
BAD_POINT_INVALID_Z
10
40
20
50
30
not-a-number
0
ENDSEC
0
EOF
