ISO-10303-21;
HEADER;
FILE_DESCRIPTION(('BoberCAD IFC cyclic local placement fixture'), '2;1');
FILE_NAME('sample_reference_geometry_cyclic_local_placement.ifc', '2026-06-29T00:00:00', ('BoberCAD'), ('BoberCAD'), 'BoberCAD', 'BoberCAD', '');
FILE_SCHEMA(('IFC4'));
ENDSEC;
DATA;
#1 = IFCCARTESIANPOINT((0.0, 0.0, 0.0));
#2 = IFCCARTESIANPOINT((120.0, 0.0, 0.0));
#3 = IFCCARTESIANPOINT((120.0, 80.0, 0.0));
#4 = IFCCARTESIANPOINT((0.0, 80.0, 0.0));
#5 = IFCCARTESIANPOINT((0.0, 0.0, 40.0));
#6 = IFCCARTESIANPOINT((120.0, 0.0, 40.0));
#7 = IFCCARTESIANPOINT((120.0, 80.0, 40.0));
#8 = IFCCARTESIANPOINT((0.0, 80.0, 40.0));
#20 = IFCPOLYLOOP((#1, #2, #3, #4));
#21 = IFCPOLYLOOP((#5, #8, #7, #6));
#22 = IFCPOLYLOOP((#1, #5, #6, #2));
#23 = IFCPOLYLOOP((#2, #6, #7, #3));
#24 = IFCPOLYLOOP((#3, #7, #8, #4));
#25 = IFCPOLYLOOP((#4, #8, #5, #1));
#30 = IFCFACEOUTERBOUND(#20, .T.);
#31 = IFCFACEOUTERBOUND(#21, .T.);
#32 = IFCFACEOUTERBOUND(#22, .T.);
#33 = IFCFACEOUTERBOUND(#23, .T.);
#34 = IFCFACEOUTERBOUND(#24, .T.);
#35 = IFCFACEOUTERBOUND(#25, .T.);
#40 = IFCFACE((#30));
#41 = IFCFACE((#31));
#42 = IFCFACE((#32));
#43 = IFCFACE((#33));
#44 = IFCFACE((#34));
#45 = IFCFACE((#35));
#50 = IFCCLOSEDSHELL((#40, #41, #42, #43, #44, #45));
#51 = IFCFACETEDBREP(#50);
#60 = IFCCARTESIANPOINT((1000.0, 500.0, 20.0));
#61 = IFCDIRECTION((0.0, 0.0, 1.0));
#62 = IFCDIRECTION((1.0, 0.0, 0.0));
#63 = IFCLOCALPLACEMENT(#65, #64);
#64 = IFCAXIS2PLACEMENT3D(#60, #61, #62);
#65 = IFCLOCALPLACEMENT(#63, #66);
#66 = IFCAXIS2PLACEMENT3D(#67, #61, #62);
#67 = IFCCARTESIANPOINT((10.0, 0.0, 0.0));
#70 = IFCSHAPEREPRESENTATION($, 'Body', 'Brep', (#51));
#71 = IFCPRODUCTDEFINITIONSHAPE($, $, (#70));
#80 = IFCBUILDINGELEMENTPROXY('cyclic-local-placement-1', $, 'Cyclic local placement block', $, $, #63, #71, $, $);
#101 = IFCCARTESIANPOINT((500.0, 0.0, 0.0));
#102 = IFCCARTESIANPOINT((620.0, 0.0, 0.0));
#103 = IFCCARTESIANPOINT((620.0, 80.0, 0.0));
#104 = IFCCARTESIANPOINT((500.0, 80.0, 0.0));
#105 = IFCCARTESIANPOINT((500.0, 0.0, 40.0));
#106 = IFCCARTESIANPOINT((620.0, 0.0, 40.0));
#107 = IFCCARTESIANPOINT((620.0, 80.0, 40.0));
#108 = IFCCARTESIANPOINT((500.0, 80.0, 40.0));
#120 = IFCPOLYLOOP((#101, #102, #103, #104));
#121 = IFCPOLYLOOP((#105, #108, #107, #106));
#122 = IFCPOLYLOOP((#101, #105, #106, #102));
#123 = IFCPOLYLOOP((#102, #106, #107, #103));
#124 = IFCPOLYLOOP((#103, #107, #108, #104));
#125 = IFCPOLYLOOP((#104, #108, #105, #101));
#130 = IFCFACEOUTERBOUND(#120, .T.);
#131 = IFCFACEOUTERBOUND(#121, .T.);
#132 = IFCFACEOUTERBOUND(#122, .T.);
#133 = IFCFACEOUTERBOUND(#123, .T.);
#134 = IFCFACEOUTERBOUND(#124, .T.);
#135 = IFCFACEOUTERBOUND(#125, .T.);
#140 = IFCFACE((#130));
#141 = IFCFACE((#131));
#142 = IFCFACE((#132));
#143 = IFCFACE((#133));
#144 = IFCFACE((#134));
#145 = IFCFACE((#135));
#150 = IFCCLOSEDSHELL((#140, #141, #142, #143, #144, #145));
#151 = IFCFACETEDBREP(#150);
ENDSEC;
END-ISO-10303-21;
