0
SECTION
2
TABLES
0
TABLE
2
LAYER
0
LAYER
2
KEEP_LINE
62
3
0
LAYER
2
BAD_LWPOLYLINE
62
1
0
LAYER
2
BAD_POLYLINE
62
2
0
LAYER
2
BAD_LWPOLYLINE_EXTRUSION
62
1
0
LAYER
2
BAD_POLYLINE_EXTRUSION
62
2
0
ENDTAB
0
ENDSEC
0
SECTION
2
ENTITIES
0
LINE
8
KEEP_LINE
10
0
20
0
30
0
11
100
21
0
31
0
0
LWPOLYLINE
8
BAD_LWPOLYLINE
90
2
10
10
20
10
10
not-a-number
20
20
0
POLYLINE
8
BAD_POLYLINE
66
1
70
0
0
VERTEX
8
BAD_POLYLINE
10
30
20
30
30
0
0
VERTEX
8
BAD_POLYLINE
10
40
30
0
0
SEQEND
0
LWPOLYLINE
8
BAD_LWPOLYLINE_EXTRUSION
90
2
10
50
20
50
10
90
20
50
210
bad
220
0
230
1
0
POLYLINE
8
BAD_POLYLINE_EXTRUSION
66
1
70
0
210
0
220
0
230
0
0
VERTEX
8
BAD_POLYLINE_EXTRUSION
10
60
20
60
30
0
0
VERTEX
8
BAD_POLYLINE_EXTRUSION
10
100
20
60
30
0
0
SEQEND
0
ENDSEC
0
EOF
