0
SECTION
2
TABLES
0
TABLE
2
LAYER
0
LAYER
2
POLYFACE
62
6
0
ENDTAB
0
ENDSEC
0
SECTION
2
ENTITIES
0
POLYLINE
8
POLYFACE
66
1
70
64
0
VERTEX
8
POLYFACE
10
0
20
0
30
0
70
64
0
VERTEX
8
POLYFACE
10
100
20
0
30
0
70
64
0
VERTEX
8
POLYFACE
10
100
20
100
30
0
70
64
0
VERTEX
8
POLYFACE
10
0
20
100
30
0
70
64
0
VERTEX
8
POLYFACE
10
50
20
50
30
120
70
64
0
VERTEX
8
POLYFACE
70
128
71
1
72
2
73
3
74
4
0
VERTEX
8
POLYFACE
70
128
71
1
72
2
73
5
74
0
0
VERTEX
8
POLYFACE
70
128
71
2
72
3
73
5
74
0
0
VERTEX
8
POLYFACE
70
128
71
3
72
4
73
5
74
0
0
VERTEX
8
POLYFACE
70
128
71
4
72
1
73
5
74
0
0
SEQEND
0
ENDSEC
0
EOF
