0
SECTION
2
TABLES
0
TABLE
2
LAYER
0
LAYER
2
KEEP_LINE
62
3
0
LAYER
2
BAD_LINE_MISSING_START_X
62
1
0
LAYER
2
BAD_LINE_MISSING_END_Y
62
2
0
LAYER
2
BAD_LINE_INVALID_START_X
62
4
0
LAYER
2
BAD_3DLINE_INVALID_END_Z
62
5
0
ENDTAB
0
ENDSEC
0
SECTION
2
ENTITIES
0
LINE
8
KEEP_LINE
10
0
20
0
30
0
11
100
21
0
31
0
0
LINE
8
BAD_LINE_MISSING_START_X
20
10
30
0
11
20
21
20
31
0
0
LINE
8
BAD_LINE_MISSING_END_Y
10
30
20
30
30
0
11
40
31
0
0
LINE
8
BAD_LINE_INVALID_START_X
10
not-a-number
20
50
30
0
11
60
21
50
31
0
0
3DLINE
8
BAD_3DLINE_INVALID_END_Z
10
70
20
70
30
0
11
80
21
80
31
not-a-number
0
ENDSEC
0
EOF
