0
SECTION
2
TABLES
0
TABLE
2
LAYER
0
LAYER
2
KEEP_LINE
62
3
0
LAYER
2
DEGENERATE_FACE
62
1
0
LAYER
2
DEGENERATE_SOLID
62
2
0
LAYER
2
DEGENERATE_TRACE
62
4
0
ENDTAB
0
ENDSEC
0
SECTION
2
ENTITIES
0
LINE
8
KEEP_LINE
10
0
20
0
30
0
11
100
21
0
31
0
0
3DFACE
8
DEGENERATE_FACE
10
10
20
10
30
0
11
10
21
10
31
0
12
10
22
10
32
0
13
10
23
10
33
0
0
SOLID
8
DEGENERATE_SOLID
10
20
20
20
30
0
11
20
21
20
31
0
12
20
22
20
32
0
13
20
23
20
33
0
0
TRACE
8
DEGENERATE_TRACE
10
30
20
30
30
0
11
30
21
30
31
0
12
30
22
30
32
0
13
30
23
30
33
0
0
ENDSEC
0
EOF
