0
SECTION
2
TABLES
0
TABLE
2
LAYER
0
LAYER
2
KEEP_LINE
62
3
0
LAYER
2
EMPTY_CIRCLE
62
1
0
LAYER
2
EMPTY_ARC
62
2
0
LAYER
2
EMPTY_ELLIPSE
62
4
0
LAYER
2
EMPTY_SPLINE
62
5
0
ENDTAB
0
ENDSEC
0
SECTION
2
ENTITIES
0
LINE
8
KEEP_LINE
10
0
20
0
30
0
11
100
21
0
31
0
0
CIRCLE
8
EMPTY_CIRCLE
10
10
20
10
30
0
40
0
0
ARC
8
EMPTY_ARC
10
20
20
20
30
0
40
0
50
0
51
90
0
ELLIPSE
8
EMPTY_ELLIPSE
10
30
20
30
30
0
11
0
21
0
31
0
40
0.5
41
0
42
6.283185307179586
0
SPLINE
8
EMPTY_SPLINE
70
8
71
3
10
40
20
40
30
0
0
ENDSEC
0
EOF
