0
SECTION
2
TABLES
0
TABLE
2
LAYER
0
LAYER
2
KEEP_LINE
62
3
0
LAYER
2
HATCH_BAD_POLYLINE
62
1
0
LAYER
2
HATCH_BAD_EDGE
62
2
0
LAYER
2
HATCH_BAD_EXTRUSION
62
4
0
ENDTAB
0
ENDSEC
0
SECTION
2
ENTITIES
0
LINE
8
KEEP_LINE
10
0
20
0
30
0
11
100
21
0
31
0
0
HATCH
8
HATCH_BAD_POLYLINE
100
AcDbEntity
100
AcDbHatch
10
0
20
0
30
0
210
0
220
0
230
1
2
SOLID
70
1
71
0
91
1
92
2
72
0
73
1
93
3
10
0
10
100
20
0
10
0
20
100
0
HATCH
8
HATCH_BAD_EDGE
100
AcDbEntity
100
AcDbHatch
10
0
20
0
30
0
210
0
220
0
230
1
2
SOLID
70
1
71
0
91
1
92
1
93
1
72
1
10
200
11
320
21
0
0
HATCH
8
HATCH_BAD_EXTRUSION
100
AcDbEntity
100
AcDbHatch
10
0
20
0
30
0
210
0
220
bad
230
1
2
SOLID
70
1
71
0
91
1
92
2
72
0
73
1
93
4
10
0
20
0
10
100
20
0
10
100
20
100
10
0
20
100
0
ENDSEC
0
EOF
