0
SECTION
2
TABLES
0
TABLE
2
LAYER
0
LAYER
2
KEEP_LINE
62
3
0
LAYER
2
BAD_CIRCLE
62
1
0
LAYER
2
BAD_ARC
62
2
0
LAYER
2
BAD_ELLIPSE
62
4
0
LAYER
2
BAD_SPLINE
62
5
0
LAYER
2
BAD_CIRCLE_EXTRUSION
62
1
0
LAYER
2
BAD_ARC_EXTRUSION
62
2
0
LAYER
2
BAD_ELLIPSE_EXTRUSION
62
4
0
ENDTAB
0
ENDSEC
0
SECTION
2
ENTITIES
0
LINE
8
KEEP_LINE
10
0
20
0
30
0
11
100
21
0
31
0
0
CIRCLE
8
BAD_CIRCLE
10
10
30
0
40
25
0
ARC
8
BAD_ARC
10
20
20
20
30
0
40
not-a-number
50
0
51
90
0
ELLIPSE
8
BAD_ELLIPSE
10
30
20
30
30
0
11
40
31
0
40
0.5
41
0
42
6.283185307179586
0
SPLINE
8
BAD_SPLINE
70
8
71
3
10
40
30
0
10
80
20
80
30
0
0
CIRCLE
8
BAD_CIRCLE_EXTRUSION
10
50
20
50
30
0
40
20
210
not-a-number
220
0
230
1
0
ARC
8
BAD_ARC_EXTRUSION
10
60
20
60
30
0
40
20
50
0
51
90
210
0
220
0
230
0
0
ELLIPSE
8
BAD_ELLIPSE_EXTRUSION
10
70
20
70
30
0
11
20
21
0
31
0
40
0.5
41
0
42
6.283185307179586
210
0
220
bad
230
1
0
ENDSEC
0
EOF
