0
SECTION
2
TABLES
0
TABLE
2
LAYER
0
LAYER
2
HATCH_REF
62
2
0
LAYER
2
HATCH_EDGE
62
3
0
LAYER
2
HATCH_ARC
62
4
0
LAYER
2
HATCH_ELLIPSE
62
5
0
LAYER
2
HATCH_ARC_CW
62
6
0
LAYER
2
HATCH_SPLINE
62
7
0
ENDTAB
0
ENDSEC
0
SECTION
2
ENTITIES
0
HATCH
8
HATCH_REF
100
AcDbEntity
100
AcDbHatch
10
0
20
0
30
0
210
0
220
0
230
1
2
SOLID
70
1
71
0
91
1
92
2
72
0
73
1
93
4
10
0
20
0
10
120
20
0
10
120
20
80
10
0
20
80
0
HATCH
8
HATCH_EDGE
100
AcDbEntity
100
AcDbHatch
10
0
20
0
30
0
210
0
220
0
230
1
2
SOLID
70
1
71
0
91
1
92
1
93
4
72
1
10
200
20
0
11
320
21
0
72
1
10
320
20
0
11
320
21
80
72
1
10
320
20
80
11
200
21
80
72
1
10
200
20
80
11
200
21
0
0
HATCH
8
HATCH_ARC
100
AcDbEntity
100
AcDbHatch
10
0
20
0
30
0
210
0
220
0
230
1
2
SOLID
70
1
71
0
91
1
92
1
93
4
72
2
10
500
20
40
40
40
50
0
51
180
73
1
72
1
10
460
20
40
11
460
21
0
72
1
10
460
20
0
11
540
21
0
72
1
10
540
20
0
11
540
21
40
0
HATCH
8
HATCH_ELLIPSE
100
AcDbEntity
100
AcDbHatch
10
0
20
0
30
0
210
0
220
0
230
1
2
SOLID
70
1
71
0
91
1
92
1
93
4
72
3
10
720
20
40
11
60
21
0
40
0.5
50
0
51
180
73
1
72
1
10
660
20
40
11
660
21
0
72
1
10
660
20
0
11
780
21
0
72
1
10
780
20
0
11
780
21
40
0
HATCH
8
HATCH_ARC_CW
100
AcDbEntity
100
AcDbHatch
10
0
20
0
30
0
210
0
220
0
230
1
2
SOLID
70
1
71
0
91
1
92
1
93
4
72
2
10
900
20
40
40
40
50
0
51
180
73
0
72
1
10
860
20
40
11
860
21
80
72
1
10
860
20
80
11
940
21
80
72
1
10
940
20
80
11
940
21
40
0
HATCH
8
HATCH_SPLINE
100
AcDbEntity
100
AcDbHatch
10
0
20
0
30
0
210
0
220
0
230
1
2
SOLID
70
1
71
0
91
1
92
1
93
4
72
4
94
3
73
0
74
0
95
8
96
4
40
0
40
0
40
0
40
0
40
1
40
1
40
1
40
1
10
1000
20
0
42
1
10
1040
20
80
42
1
10
1120
20
80
42
1
10
1160
20
0
42
1
97
0
72
1
10
1160
20
0
11
1160
21
-40
72
1
10
1160
20
-40
11
1000
21
-40
72
1
10
1000
20
-40
11
1000
21
0
0
ENDSEC
0
EOF
