0
SECTION
2
TABLES
0
TABLE
2
LAYER
0
LAYER
2
KEEP_LINE
62
3
0
LAYER
2
BAD_INSERT_POINT
62
1
0
LAYER
2
BAD_INSERT_SCALE
62
2
0
LAYER
2
BAD_INSERT_ARRAY
62
4
0
ENDTAB
0
ENDSEC
0
SECTION
2
BLOCKS
0
BLOCK
8
0
2
CELL
70
0
10
0
20
0
30
0
0
LINE
8
0
10
0
20
0
30
0
11
10
21
0
31
0
0
ENDBLK
0
ENDSEC
0
SECTION
2
ENTITIES
0
LINE
8
KEEP_LINE
10
0
20
0
30
0
11
100
21
0
31
0
0
INSERT
8
BAD_INSERT_POINT
2
CELL
10
200
30
0
0
INSERT
8
BAD_INSERT_SCALE
2
CELL
10
300
20
0
30
0
41
not-a-number
0
INSERT
8
BAD_INSERT_ARRAY
2
CELL
10
400
20
0
30
0
70
two
71
2
44
50
45
25
0
ENDSEC
0
EOF
