ISO-10303-21;
HEADER;
FILE_DESCRIPTION(('BoberCAD polygonal STEP void reference fixture'), '2;1');
FILE_NAME('sample_reference_geometry_polygonal_voids.step', '2026-06-22T00:00:00', ('BoberCAD'), ('BoberCAD'), 'BoberCAD', 'BoberCAD', '');
FILE_SCHEMA(('AP242_MANAGED_MODEL_BASED_3D_ENGINEERING_MIM_LF'));
ENDSEC;
DATA;
#10 = CARTESIAN_POINT_LIST_3D('', (
  (0.0, 0.0, 0.0),
  (240.0, 0.0, 0.0),
  (240.0, 180.0, 0.0),
  (0.0, 180.0, 0.0),
  (80.0, 60.0, 0.0),
  (160.0, 60.0, 0.0),
  (160.0, 120.0, 0.0),
  (80.0, 120.0, 0.0)
));
#20 = INDEXED_POLYGONAL_FACE_WITH_VOIDS((1, 2, 3, 4), ((5, 6, 7, 8)));
#40 = POLYGONAL_FACE_SET('', #10, .T., (#20));
ENDSEC;
END-ISO-10303-21;
